<svg width="300" height="240" viewBox="0 0 300 240" fill="none" xmlns="http://www.w3.org/2000/svg">
<path d="M149.486 232V174.028L101.216 145.899V90.3277L55 63.2282V176.772L149.486 232Z" fill="#1E1C4E"/>
<path d="M101.216 90.3277L149.486 61.856L197.414 90.3277L245 63.2282L149.486 8L55 63.2282L101.216 90.3277Z" fill="white"/>
<path d="M149.486 61.856V118.113L197.414 145.899V90.3277L149.486 61.856Z" fill="#1E1C4E"/>
<path d="M149.486 118.113V61.856L101.216 90.3277V145.899L149.486 118.113Z" fill="#F5BF5B"/>
<path d="M245 176.772V63.2282L197.414 90.3277V145.899L149.486 174.028V232L245 176.772Z" fill="#F5BF5B"/>
<path d="M149.486 118.113L101.216 145.899L149.486 174.028L197.414 145.899L149.486 118.113Z" fill="white"/>
</svg>
