<svg width="300" height="240" viewBox="0 0 300 240" fill="none" xmlns="http://www.w3.org/2000/svg">
<path d="M247.563 109.161H299.5L265.597 75.1971H213.659L247.563 109.161Z" fill="white"/>
<path d="M213.659 75.1971L159.558 21L136.781 43.3716L191.105 97.7917L213.659 75.1971Z" fill="white"/>
<path d="M159.558 21H109.063L0.5 129.755H48.8305L136.781 43.3716L159.558 21Z" fill="#1E1C4E"/>
<path d="M83.4554 164.442L104.735 143.124L136.835 110.967L157.394 131.562L191.105 97.7917L136.781 43.3716L48.8305 129.755L83.4554 164.442Z" fill="#F5BF5B"/>
<path d="M159.197 197.682L247.563 109.161L213.659 75.1971L191.105 97.7917L157.394 131.562L136.835 110.967L104.735 143.124L159.197 197.682Z" fill="#1E1C4E"/>
<path d="M137.917 219H189.855L299.5 109.161H247.563L159.197 197.682L137.917 219Z" fill="#F5BF5B"/>
<path d="M137.917 219L159.197 197.682L104.735 143.124L83.4554 164.442L137.917 219Z" fill="white"/>
<path d="M48.8305 129.755H0.5L35.1248 164.442H83.4554L48.8305 129.755Z" fill="white"/>
</svg>
