<svg width="300" height="240" viewBox="0 0 300 240" fill="none" xmlns="http://www.w3.org/2000/svg">
<path d="M149.706 78.524L217 39.262L149.706 0L83 39.262L149.706 78.524Z" fill="white"/>
<path d="M149.706 78.524V156.458L217 116.9V39.262L149.706 78.524Z" fill="#F5BF5B"/>
<path d="M149.706 156.458V78.524L83 39.262V116.9L119.145 138.334L149.706 156.458Z" fill="#1E1C4E"/>
<path d="M180.537 138.334L149.706 156.458L119.145 138.334C121.745 141.234 156.386 156.458 133.638 179.31C119.191 193.823 118.798 207.823 119.299 213.474C120.002 221.396 126.794 240.21 149.988 239.998C173.182 239.786 179.859 221.396 180.562 213.474C181.08 207.635 181.236 193.23 166.223 179.31C141.577 156.458 177.936 141.234 180.537 138.334Z" fill="url(#paint0_linear_71_516)"/>
<defs>
<linearGradient id="paint0_linear_71_516" x1="150" y1="149.963" x2="150" y2="240" gradientUnits="userSpaceOnUse">
<stop stop-color="#484591"/>
<stop offset="1" stop-color="#F5BF5B"/>
</linearGradient>
</defs>
</svg>
