<svg width="290" height="290" viewBox="0 0 290 290" fill="none" xmlns="http://www.w3.org/2000/svg">
    <path d="M233.697 23H163.092L198.395 84.358H269L233.697 23Z" fill="#ffffff"/>
    <path d="M198.395 84.358L163.092 23L128.22 84.358L163.076 145.256L163.092 145.284L198.395 84.358Z" fill="#1E1C4E"/>
    <path d="M128.22 84.358H57.1848L92.6051 145.284H163.092L163.076 145.256L128.22 84.358Z" fill="#ffffff"/>
    <path d="M92.6051 145.284L57.1848 84.358L22 145.716L57.1848 206.642L92.6051 145.284Z" fill="#1E1C4E"/>
    <path d="M163.092 145.284L198.427 206.642H269L234.128 145.716L163.092 145.284Z" fill="#ffffff"/>
    <path d="M127.359 207.074L162.662 268L198.427 206.642L163.092 145.284L127.359 207.074Z" fill="#1E1C4E"/>
    <path d="M92.6051 145.284L57.1848 206.642L127.359 207.074L163.092 145.284H92.6051Z" fill="#F5BF5B"/>
    <path d="M269 84.358H198.395L163.092 145.284L234.128 145.716L269 84.358Z" fill="#F5BF5B"/>
    <path d="M198.427 206.642L162.662 268L231 268L269 206.642H198.427Z" fill="#F5BF5B"/>
</svg>
