<svg width="290" height="290" viewBox="0 0 290 290" fill="none" xmlns="http://www.w3.org/2000/svg">
    <path d="M155.334 183.403C155.334 192.921 152.731 200.653 147.527 206.601C142.471 212.55 135.63 216.936 127.005 219.762C118.38 222.587 108.863 224 98.4538 224H20.6065V65.6288H112.506C119.942 65.6288 126.336 67.6364 131.689 71.6514C137.191 75.5178 141.355 80.5737 144.181 86.8194C147.155 93.065 148.642 99.5337 148.642 106.225C148.642 113.512 146.709 120.575 142.842 127.416C139.125 134.256 133.474 139.387 125.89 142.807C134.961 145.484 142.099 150.168 147.303 156.86C152.657 163.551 155.334 172.399 155.334 183.403ZM111.168 174.481C111.168 171.804 110.648 169.5 109.607 167.566C108.714 165.484 107.45 163.849 105.815 162.659C104.179 161.469 102.246 160.875 100.015 160.875H64.1028V187.418H98.4538C100.833 187.418 102.989 186.898 104.922 185.857C106.856 184.816 108.343 183.329 109.384 181.396C110.573 179.463 111.168 177.158 111.168 174.481ZM64.1028 102.656V126.97H93.7695C95.7027 126.97 97.5615 126.672 99.346 126.078C101.13 125.334 102.618 124.07 103.807 122.286C104.997 120.501 105.592 117.973 105.592 114.702C105.592 111.727 105.071 109.423 104.03 107.787C103.138 106.002 101.874 104.738 100.238 103.995C98.7512 103.103 97.0411 102.656 95.1079 102.656H64.1028Z"
          fill="#F5BF5B"/>
    <path d="M278.65 190.98C278.65 198.721 276.534 205.01 272.3 209.849C268.188 214.687 262.624 218.255 255.609 220.553C248.594 222.851 240.853 224 232.386 224H169.067V95.1852H243.816C249.864 95.1852 255.065 96.8181 259.419 100.084C263.894 103.229 267.281 107.341 269.579 112.421C271.998 117.501 273.208 122.762 273.208 128.205C273.208 134.132 271.635 139.877 268.49 145.441C265.467 151.005 260.87 155.178 254.702 157.96C262.08 160.137 267.886 163.947 272.119 169.39C276.473 174.833 278.65 182.029 278.65 190.98ZM242.727 183.723C242.727 181.546 242.304 179.671 241.457 178.098C240.732 176.405 239.704 175.075 238.373 174.107C237.043 173.139 235.47 172.656 233.656 172.656H204.446V194.246H232.386C234.321 194.246 236.075 193.822 237.647 192.976C239.22 192.129 240.429 190.919 241.276 189.347C242.244 187.775 242.727 185.9 242.727 183.723ZM204.446 125.302V145.078H228.576C230.148 145.078 231.66 144.836 233.112 144.353C234.563 143.748 235.773 142.72 236.74 141.268C237.708 139.817 238.192 137.761 238.192 135.1C238.192 132.681 237.768 130.806 236.922 129.475C236.196 128.024 235.168 126.996 233.837 126.391C232.628 125.665 231.237 125.302 229.665 125.302H204.446Z"
          fill="white"/>
</svg>
